<?xml version="1.0" standalone="no"?>
<!DOCTYPE svg PUBLIC "-//W3C//DTD SVG 20010904//EN"
 "http://www.w3.org/TR/2001/REC-SVG-20010904/DTD/svg10.dtd">
<svg version="1.0" xmlns="http://www.w3.org/2000/svg"
 width="458.000000pt" height="499.000000pt" viewBox="0 0 458.000000 499.000000"
 preserveAspectRatio="xMidYMid meet">
<metadata>
Created by potrace 1.14, written by Peter Selinger 2001-2017
</metadata>
<g transform="translate(0.000000,499.000000) scale(0.100000,-0.100000)"
fill="#000000" stroke="none">
<path d="M1963 4940 c-71 -41 -165 -130 -213 -203 -125 -191 -126 -463 -1
-652 22 -33 80 -99 129 -147 101 -97 117 -129 110 -214 -15 -177 -246 -253
-376 -124 -80 80 -82 200 -4 284 l27 30 -30 -18 c-52 -32 -85 -69 -115 -130
-62 -123 -28 -279 78 -364 120 -95 175 -179 194 -298 32 -194 -100 -392 -303
-455 -254 -79 -544 91 -575 338 l-6 48 32 -62 c60 -118 164 -178 300 -171 315
15 413 417 139 572 l-34 20 37 -38 c46 -47 62 -93 56 -162 -15 -177 -246 -253
-376 -124 -82 82 -82 201 1 289 l32 34 -53 -29 c-72 -38 -172 -132 -222 -207
-118 -180 -126 -435 -19 -623 39 -68 98 -135 180 -200 77 -62 114 -126 131
-230 19 -111 -22 -241 -102 -328 -208 -225 -581 -184 -735 82 -4 8 12 0 35
-17 93 -67 234 -81 335 -31 224 109 233 420 14 544 l-34 20 37 -38 c46 -47 62
-93 56 -162 -12 -137 -158 -223 -300 -175 -49 16 -112 80 -126 129 -27 89 -8
146 72 219 l51 46 -53 -28 c-73 -39 -172 -133 -222 -208 -126 -192 -126 -462
0 -654 59 -90 159 -177 255 -223 108 -51 171 -65 295 -64 87 1 119 6 185 28
44 15 95 37 113 48 l32 20 0 -64 c1 -362 182 -726 474 -952 122 -95 183 -129
341 -192 230 -93 530 -108 791 -40 345 90 656 344 809 661 82 169 114 302 122
502 l6 132 32 -24 c42 -32 146 -79 215 -96 31 -8 101 -13 160 -13 87 1 119 6
185 28 197 67 345 212 406 397 35 106 35 272 0 378 -33 99 -108 210 -186 274
-60 50 -145 101 -153 92 -2 -2 12 -20 32 -41 44 -45 60 -91 54 -160 -15 -177
-246 -253 -376 -124 -80 80 -82 200 -4 284 l27 30 -30 -18 c-52 -32 -85 -69
-115 -130 -79 -158 -1 -353 167 -416 140 -52 302 -3 383 117 35 53 34 33 -5
-54 -132 -294 -586 -327 -772 -55 -71 105 -92 225 -57 341 22 76 42 104 113
157 258 194 317 560 135 827 -47 69 -116 134 -189 179 -70 43 -78 39 -26 -11
55 -53 67 -89 58 -168 -19 -168 -250 -238 -375 -113 -80 80 -82 200 -4 284
l27 30 -30 -18 c-52 -32 -85 -69 -115 -130 -80 -159 -1 -353 169 -417 112 -42
251 -15 336 66 41 38 42 37 14 -16 -28 -55 -90 -121 -150 -160 -287 -184 -689
17 -689 346 0 122 61 249 148 308 116 79 167 170 160 287 -6 106 -65 201 -159
254 l-34 20 37 -38 c46 -47 62 -93 56 -162 -15 -177 -246 -253 -376 -124 -62
62 -78 149 -43 225 20 43 52 76 147 154 77 63 152 173 185 272 20 61 24 94 24
189 0 95 -4 128 -24 189 -44 132 -144 258 -266 333 -70 43 -76 39 -21 -16 191
-191 155 -487 -78 -638 -64 -41 -104 -54 -45 -14 19 13 47 41 62 63 105 151
57 356 -104 447 l-34 20 37 -38 c46 -47 62 -93 56 -162 -15 -177 -246 -253
-376 -124 -80 80 -82 200 -4 284 l27 30 -30 -18 c-52 -32 -85 -69 -115 -130
-25 -49 -30 -71 -30 -131 0 -60 5 -82 31 -133 17 -34 49 -78 72 -98 l42 -37
-54 29 c-75 40 -143 111 -182 189 -78 159 -35 361 101 478 24 20 42 37 39 37
-2 0 -27 -14 -56 -30z m365 -1170 c46 -43 36 -118 -19 -140 -87 -36 -159 68
-93 134 33 32 81 35 112 6z m38 -385 c17 -7 46 -29 66 -49 76 -78 76 -197 0
-280 l-27 -30 30 18 c86 53 145 152 145 246 l0 58 58 -24 c40 -17 77 -24 124
-24 l67 0 -55 -52 c-74 -70 -129 -157 -161 -253 -21 -66 -26 -99 -26 -185 0
-101 14 -168 59 -274 6 -17 2 -15 -27 7 -45 34 -148 80 -219 98 -31 8 -101 13
-160 13 -87 -1 -119 -6 -185 -28 -44 -15 -94 -36 -111 -47 -17 -10 -34 -19
-37 -19 -3 0 7 33 21 73 23 62 26 88 27 192 0 101 -4 132 -24 194 -30 92 -106
207 -173 264 l-50 42 78 6 c65 4 121 20 164 46 3 2 5 -32 5 -75 0 -61 5 -87
24 -126 27 -55 80 -111 132 -140 l34 -20 -34 34 c-43 44 -61 87 -61 147 0 154
164 252 316 188z m572 -1163 c100 -121 160 -246 188 -390 79 -416 -194 -828
-631 -949 -90 -25 -115 -28 -250 -27 -132 1 -161 4 -240 28 -227 68 -396 189
-512 367 -188 288 -172 650 40 934 44 60 117 125 137 125 5 0 -4 -33 -18 -72
-23 -63 -26 -89 -27 -193 0 -101 4 -132 24 -194 44 -132 144 -258 266 -333 70
-43 76 -39 21 16 -94 95 -141 235 -117 352 42 211 219 354 436 354 245 0 445
-187 445 -415 0 -117 -53 -232 -141 -309 l-44 -39 53 29 c72 38 172 132 222
207 94 144 121 347 68 507 -14 41 -29 84 -34 95 -12 29 64 -33 114 -93z"/>
</g>
</svg>
